Coordinates
version=1
nRows=6
nColumns=36
inDegrees=yes

Units are S.I. units (second, meters, Newtons, ...)
If the header above contains a line with 'inDegrees', this indicates whether rotational values are in degrees (yes) or radians (no).

endheader
time	pelvis_tilt	pelvis_list	pelvis_rotation	pelvis_tx	pelvis_ty	pelvis_tz	hip_flexion_r	hip_adduction_r	hip_rotation_r	knee_angle_r	knee_angle_r_beta	ankle_angle_r	subtalar_angle_r	mtp_angle_r	hip_flexion_l	hip_adduction_l	hip_rotation_l	knee_angle_l	knee_angle_l_beta	ankle_angle_l	subtalar_angle_l	mtp_angle_l	lumbar_extension	lumbar_bending	lumbar_rotation	arm_flex_r	arm_add_r	arm_rot_r	elbow_flex_r	pro_sup_r	arm_flex_l	arm_add_l	arm_rot_l	elbow_flex_l	pro_sup_l
      3.51250000	     -1.82783135	     -1.80693700	      2.17618728	      0.41130999	      1.02731677	     -0.30106363	     20.31761814	     -4.92544244	     -4.80826214	     28.24191697	      0.49291444	     -4.44417820	    -21.01508517	     -7.49999987	     19.47590345	     -4.06987853	     -2.32460979	     28.08610715	      0.49019504	      2.30673591	     -6.60833788	     -7.49999987	    -13.21345941	     -2.42772030	     -7.26204282	    103.90350188	    -35.27440021	     30.57759452	    116.64457569	     88.43261476	    122.97242528	    -20.84637232	     48.33494081	     95.79223720	     83.69186219
      3.51666670	     -2.09580703	     -1.80537346	      2.17796690	      0.41114099	      1.02028016	     -0.30196810	     21.39028988	     -5.07455381	     -3.91881735	     30.72877655	      0.53631833	     -0.29560985	    -22.07796096	     -7.49999987	     21.05323387	     -4.08355586	     -2.36393896	     30.60659180	      0.53418580	      6.10235207	     -5.85715392	     -7.49999987	    -13.18497669	     -2.92600111	     -6.74706152	    100.93149880	    -36.19964749	     28.00834621	    118.56120578	     92.80071424	    121.54449165	    -19.90170708	     47.57317817	     96.69955734	     87.97808619
      3.52083330	     -2.42119440	     -1.73636878	      2.19781781	      0.40850710	      1.01299794	     -0.30558905	     22.50152982	     -5.20055000	     -3.15499911	     32.67419606	      0.57027230	      2.70168818	    -23.03817289	     -7.49999987	     22.29922163	     -3.73280580	     -2.28828502	     32.33310309	      0.56431911	      8.86028582	     -5.96235907	     -7.49999987	    -13.12709616	     -3.03790901	     -6.80167559	     97.82914418	    -37.52259483	     26.75347458	    120.79929425	     91.07923164	    119.81175470	    -20.20279198	     47.37156887	     98.62759408	     86.97249324
      3.52500000	     -2.55171833	     -1.74376173	      2.52596551	      0.40831467	      0.99964633	     -0.30617251	     23.83426662	     -5.18900920	     -1.94087694	     35.20088590	      0.61437136	      5.01313809	    -24.72111647	     -7.49999987	     23.45386650	     -3.46437767	     -2.33728809	     34.11233197	      0.59537251	     11.52377482	     -6.41793601	     -7.49999987	    -13.44058521	     -3.22559475	     -6.06473815	     95.65036651	    -38.11221876	     24.52600127	    122.26354453	     92.51288035	    117.83896585	    -18.80326757	     45.81034741	     99.08982947	     88.72295479
      3.52916670	     -2.86979902	     -1.77139886	      2.83255399	      0.40927643	      0.99301751	     -0.30585214	     25.00901975	     -5.17483398	     -1.20266731	     37.16130509	      0.64858713	      6.94555142	    -25.54760021	     -7.49999987	     24.45452145	     -3.34576750	     -2.28230579	     35.25554902	      0.61532541	     13.81037142	     -6.81986078	     -7.49999987	    -13.48322350	     -3.19641782	     -6.79446082	     92.71175060	    -38.67390986	     23.91552972	    124.07621841	     91.28360834	    116.06898435	    -19.39424539	     45.19387009	    100.71854427	     87.71607199
      3.53333330	     -3.33764749	     -1.79212424	      3.42052073	      0.41247157	      0.98218629	     -0.31133548	     26.45681407	     -5.33693152	     -0.49897654	     39.49717202	      0.68935570	      9.01556089	    -26.37561109	     -7.49999987	     26.01916007	     -3.05684567	     -2.15697361	     37.37940643	      0.65239371	     15.87879640	     -7.12769829	     -7.49999987	    -13.22785001	     -3.69190111	     -5.94966105	     88.41416449	    -41.48183686	     20.46349502	    126.88880478	     92.61523773	    114.07698302	    -18.20701445	     45.12920435	    100.91443267	     89.54685338
